# xmcd CD database file
#
# Track frame offsets:
#	150
#	5573
#	47258
#	83743
#	130983
#	185783
#	260238
#
# Disc length: 4023 seconds
#
# Revision: 0
# Processed by: cddbd v1.5.1PL0 Copyright (c) Steve Scherf et al.
# Submitted via: CDex 1.51
#
DISCID=5b0fb507
DTITLE=Chick Corea Trio - Live at the Blue Note with Gary Burton
DYEAR=2002
DGENRE=Jazz
TTITLE0=On Green Dolphin Street
TTITLE1=Dignity
TTITLE2=Love Castle*
TTITLE3=Chelsea Shuffle#
TTITLE4=La Fiesta#
TTITLE5=unknown#
TTITLE6=unknown
EXTD=YEAR: 2002
EXTT0=
EXTT1=
EXTT2=
EXTT3=
EXTT4=
EXTT5=
EXTT6=
PLAYORDER=
